<svg width="22" height="17" viewBox="0 0 22 17" fill="none" xmlns="http://www.w3.org/2000/svg">
<path d="M18.995 2.688C19.8914 2.15209 20.5622 1.30824 20.882 0.314004C20.0397 0.813807 19.118 1.16588 18.157 1.355C16.8246 -0.0544686 14.7135 -0.39747 13.0034 0.51766C11.2933 1.43279 10.4075 3.37949 10.841 5.27C7.39062 5.09678 4.17598 3.46692 1.99702 0.786004C0.859855 2.74742 1.44097 5.25479 3.32502 6.516C2.64373 6.4941 1.97754 6.30964 1.38202 5.978C1.38202 5.996 1.38202 6.014 1.38202 6.032C1.38241 8.07516 2.82239 9.83508 4.82502 10.24C4.19308 10.4119 3.53022 10.4372 2.88702 10.314C3.45022 12.0613 5.06057 13.2583 6.89602 13.294C5.37585 14.4871 3.49849 15.1342 1.56602 15.131C1.22349 15.1315 0.881226 15.1118 0.541016 15.072C2.50341 16.333 4.78738 17.0024 7.12002 17C10.3653 17.0223 13.484 15.7429 15.7787 13.448C18.0734 11.1531 19.3526 8.03425 19.33 4.789C19.33 4.603 19.3257 4.418 19.317 4.234C20.1575 3.62661 20.8828 2.87415 21.459 2.012C20.676 2.35907 19.8455 2.58693 18.995 2.688Z" fill="black"/>
</svg>
