<svg xmlns="http://www.w3.org/2000/svg" x="0" y="0" viewBox="0 0 11.7 11.7" xml:space="preserve"><style>.st0{fill:#2a2e3b}</style><path class="st0" d="m7 8-2 2c-.9.9-2.4.9-3.3 0-.9-.9-.9-2.4 0-3.3l2-2c.2-.2.2-.5 0-.7s-.5-.2-.7 0L1 6a3.32 3.32 0 0 0 0 4.7c.6.6 1.5 1 2.4 1s1.7-.3 2.4-1l2-2c.2-.2.2-.5 0-.7s-.6-.2-.8 0z"/><path class="st0" d="M10.7 1A3.32 3.32 0 0 0 6 1L5 2c-.2.2-.2.5 0 .7l1.6 1.6L3 8c-.2.2-.2.5 0 .7.1.1.2.1.4.1s.3 0 .4-.1L7.3 5 9 6.7c.1.1.2.1.4.1s.3 0 .4-.1l1-1C12 4.4 12 2.3 10.7 1zM10 5l-.7.6L8 4.3l.6-.6c.2-.2.2-.5 0-.7s-.4-.2-.6 0l-.7.6L6 2.3l.6-.6c.9-.9 2.4-.9 3.3 0 1 .9 1 2.4.1 3.3z"/></svg>
