<svg width="21" height="20" viewBox="0 0 21 20" fill="none" xmlns="http://www.w3.org/2000/svg">
<path d="M0.00195312 10.002C0.00311667 14.9214 3.58036 19.11 8.43895 19.881V12.892H5.90195V10.002H8.44195V7.802C8.32841 6.75954 8.68448 5.72059 9.41359 4.96693C10.1427 4.21327 11.1693 3.82301 12.215 3.902C12.9655 3.91412 13.7141 3.98096 14.455 4.102V6.561H13.191C12.7558 6.504 12.3183 6.64772 12.0017 6.95167C11.6851 7.25561 11.5237 7.68688 11.563 8.124V10.002H14.334L13.891 12.893H11.563V19.881C16.8174 19.0506 20.502 14.2518 19.9475 8.96107C19.3929 3.67037 14.7932 -0.260072 9.48078 0.017177C4.16831 0.294426 0.0027976 4.68231 0.00195312 10.002Z" fill="black"/>
</svg>
